<svg width="39" height="42" viewBox="0 0 39 42" fill="none" xmlns="http://www.w3.org/2000/svg">
<path d="M36.1001 12.78L22 1C21.3444 0.447824 20.5415 0.10013 19.6902 0H18.8401C17.9823 0.0980603 17.172 0.445768 16.51 1L2.37012 12.78C1.63573 13.3913 1.04332 14.1553 0.63404 15.0188C0.224758 15.8823 0.00830093 16.8244 6.99606e-06 17.78V36.88C-0.000994629 37.4225 0.105566 37.9598 0.313239 38.461C0.520913 38.9621 0.825797 39.4172 1.21021 39.8C1.59299 40.1844 2.04792 40.4893 2.54908 40.6969C3.05024 40.9046 3.58765 41.011 4.13013 41.01H12.1301C12.3954 41.01 12.6496 40.9046 12.8372 40.7171C13.0247 40.5296 13.1301 40.2752 13.1301 40.01V32.59C13.139 30.8839 13.7928 29.2442 14.9602 28C15.5388 27.3752 16.2393 26.8754 17.0183 26.5314C17.7974 26.1874 18.6387 26.0066 19.4902 26H19.6802C21.2923 26.0493 22.8242 26.715 23.9602 27.86C24.5505 28.4471 25.0187 29.1452 25.3379 29.9141C25.6571 30.683 25.8209 31.5075 25.8201 32.34V40.01C25.8201 40.2752 25.9255 40.5296 26.113 40.7171C26.3006 40.9046 26.5549 41.01 26.8201 41.01H34.3701C34.9128 41.0121 35.4504 40.9062 35.9517 40.6985C36.453 40.4907 36.9079 40.1853 37.29 39.8C37.6742 39.4191 37.9791 38.9657 38.1868 38.4662C38.3945 37.9667 38.5008 37.431 38.5 36.89V17.78C38.4874 16.8222 38.2663 15.8787 37.8518 15.0152C37.4373 14.1517 36.8395 13.3889 36.1001 12.78Z" fill="white"/>
</svg>
