<svg width="33" height="41" viewBox="0 0 33 41" fill="none" xmlns="http://www.w3.org/2000/svg">
<path d="M16.5 13.8951C17.4104 13.8951 18.312 13.7152 19.1531 13.3658C19.9941 13.0164 20.7582 12.5044 21.4016 11.8589C22.0451 11.2134 22.5554 10.4472 22.9032 9.60391C23.251 8.76066 23.4297 7.85691 23.4289 6.94444C23.4289 5.10266 22.699 3.33624 21.3995 2.0339C20.1001 0.731566 18.3377 0 16.5 0C14.6623 0 12.9002 0.731566 11.6008 2.0339C10.3013 3.33624 9.57112 5.10266 9.57112 6.94444C9.57112 8.78679 10.3009 10.5538 11.6002 11.8571C12.8994 13.1604 14.6618 13.8934 16.5 13.8951Z" fill="white"/>
<path d="M33 34.1482C32.9984 29.7633 31.2593 25.5586 28.1651 22.4587C25.071 19.3587 20.875 17.6173 16.5 17.6173C12.125 17.6173 7.92935 19.3587 4.83518 22.4587C1.74101 25.5586 0.00163307 29.7633 0 34.1482C0 43.284 33 43.284 33 34.1482Z" fill="white"/>
</svg>
